<svg viewBox="0 0 800 600" xmlns="http://www.w3.org/2000/svg">
  <defs>
    <linearGradient id="headerGradient" x1="0%" y1="0%" x2="100%" y2="0%">
      <stop offset="0%" stop-color="#00FFFF" />
      <stop offset="100%" stop-color="#FF00FF" />
    </linearGradient>
    <filter id="glow">
      <feGaussianBlur stdDeviation="5" result="blur" />
      <feComposite in="SourceGraphic" in2="blur" operator="over" />
    </filter>
    <marker id="arrowhead" markerWidth="10" markerHeight="7" refX="0" refY="3.5" orient="auto">
      <polygon points="0 0, 10 3.5, 0 7" fill="#00FF00" />
    </marker>
  </defs>
  
  <!-- Background -->
  <rect width="800" height="600" fill="#121212" />
  
  <!-- Grid Pattern -->
  <g opacity="0.1" stroke="#004444" stroke-width="1">
    <g id="grid">
      <line x1="0" y1="0" x2="800" y2="0" />
      <line x1="0" y1="50" x2="800" y2="50" />
      <line x1="0" y1="100" x2="800" y2="100" />
      <line x1="0" y1="150" x2="800" y2="150" />
      <line x1="0" y1="200" x2="800" y2="200" />
      <line x1="0" y1="250" x2="800" y2="250" />
      <line x1="0" y1="300" x2="800" y2="300" />
      <line x1="0" y1="350" x2="800" y2="350" />
      <line x1="0" y1="400" x2="800" y2="400" />
      <line x1="0" y1="450" x2="800" y2="450" />
      <line x1="0" y1="500" x2="800" y2="500" />
      <line x1="0" y1="550" x2="800" y2="550" />
      <line x1="0" y1="600" x2="800" y2="600" />
      
      <line x1="0" y1="0" x2="0" y2="600" />
      <line x1="100" y1="0" x2="100" y2="600" />
      <line x1="200" y1="0" x2="200" y2="600" />
      <line x1="300" y1="0" x2="300" y2="600" />
      <line x1="400" y1="0" x2="400" y2="600" />
      <line x1="500" y1="0" x2="500" y2="600" />
      <line x1="600" y1="0" x2="600" y2="600" />
      <line x1="700" y1="0" x2="700" y2="600" />
      <line x1="800" y1="0" x2="800" y2="600" />
    </g>
  </g>
  
  <!-- Title -->
  <text x="400" y="40" font-family="Arial, sans-serif" font-size="32" font-weight="bold" fill="url(#headerGradient)" text-anchor="middle" filter="url(#glow)">Advanced Hash Table Techniques</text>
  
  <!-- Cuckoo Hashing Section -->
  <g transform="translate(80, 100)">
    <text x="0" y="0" font-family="Arial, sans-serif" font-size="24" font-weight="bold" fill="#00FFFF" text-anchor="start">Cuckoo Hashing</text>
    <text x="0" y="30" font-family="Arial, sans-serif" font-size="16" fill="#FFFFFF" text-anchor="start">Uses multiple hash functions and allows displacing entries</text>
    
    <!-- Cuckoo Hash Table Visualization -->
    <g transform="translate(20, 50)">
      <!-- Table 1 -->
      <text x="0" y="0" font-family="Arial, sans-serif" font-size="18" fill="#FFFF00" text-anchor="start">Table 1 (h₁)</text>
      
      <rect x="0" y="10" width="120" height="30" fill="#1A1A1A" stroke="#00FF00" stroke-width="1" />
      <text x="60" y="30" font-family="Arial, sans-serif" font-size="14" fill="#FFFFFF" text-anchor="middle">[0]</text>
      
      <rect x="0" y="40" width="120" height="30" fill="#1A1A1A" stroke="#00FF00" stroke-width="1" />
      <text x="60" y="60" font-family="Arial, sans-serif" font-size="14" fill="#FFFFFF" text-anchor="middle">[1]</text>
      
      <rect x="0" y="70" width="120" height="30" fill="#1A1A1A" stroke="#00FF00" stroke-width="1" />
      <text x="60" y="90" font-family="Arial, sans-serif" font-size="14" fill="#FF00FF" text-anchor="middle">cat → meow</text>
      
      <rect x="0" y="100" width="120" height="30" fill="#1A1A1A" stroke="#00FF00" stroke-width="1" />
      <text x="60" y="120" font-family="Arial, sans-serif" font-size="14" fill="#FFFFFF" text-anchor="middle">[3]</text>
      
      <!-- Table 2 -->
      <text x="180" y="0" font-family="Arial, sans-serif" font-size="18" fill="#FFFF00" text-anchor="start">Table 2 (h₂)</text>
      
      <rect x="180" y="10" width="120" height="30" fill="#1A1A1A" stroke="#00FF00" stroke-width="1" />
      <text x="240" y="30" font-family="Arial, sans-serif" font-size="14" fill="#FFFFFF" text-anchor="middle">[0]</text>
      
      <rect x="180" y="40" width="120" height="30" fill="#1A1A1A" stroke="#00FF00" stroke-width="1" />
      <text x="240" y="60" font-family="Arial, sans-serif" font-size="14" fill="#00FFFF" text-anchor="middle">dog → woof</text>
      
      <rect x="180" y="70" width="120" height="30" fill="#1A1A1A" stroke="#00FF00" stroke-width="1" />
      <text x="240" y="90" font-family="Arial, sans-serif" font-size="14" fill="#FFFFFF" text-anchor="middle">[2]</text>
      
      <rect x="180" y="100" width="120" height="30" fill="#1A1A1A" stroke="#00FF00" stroke-width="1" />
      <text x="240" y="120" font-family="Arial, sans-serif" font-size="14" fill="#FFFFFF" text-anchor="middle">[3]</text>
      
      <!-- Insertion Example -->
      <g transform="translate(0, 150)">
        <text x="150" y="0" font-family="Arial, sans-serif" font-size="16" fill="#FFFF00" text-anchor="middle">Inserting "fox" (Collision Resolution)</text>
        
        <rect x="50" y="20" width="80" height="30" rx="5" fill="#1A1A1A" stroke="#FF00FF" stroke-width="2" />
        <text x="90" y="40" font-family="Arial, sans-serif" font-size="14" fill="#FF00FF" text-anchor="middle">fox → yelp</text>
        
        <path d="M90,50 L90,65 L60,65 L60,70" stroke="#FF00FF" stroke-width="2" fill="none" />
        <polygon points="60,70 55,65 65,65" fill="#FF00FF" />
        
        <rect x="0" y="70" width="120" height="30" fill="#1A1A1A" stroke="#00FF00" stroke-width="1" />
        <text x="60" y="90" font-family="Arial, sans-serif" font-size="14" fill="#FFFFFF" text-anchor="middle">[0] h₁(fox) = 0</text>
        
        <path d="M120,85 L140,85 L140,60 L170,60" stroke="#FF00FF" stroke-width="2" fill="none" marker-end="url(#arrowhead)" />
        <text x="140" y="50" font-family="Arial, sans-serif" font-size="12" fill="#FF00FF" text-anchor="middle">Collision!</text>
        
        <rect x="170" y="70" width="120" height="30" fill="#1A1A1A" stroke="#00FF00" stroke-width="1" />
        <text x="230" y="90" font-family="Arial, sans-serif" font-size="14" fill="#FFFFFF" text-anchor="middle">[0] h₂(fox) = 0</text>
        
        <path d="M230,100 L230,115 L60,115 L60,130" stroke="#FF00FF" stroke-width="2" fill="none" />
        <polygon points="60,130 55,125 65,125" fill="#FF00FF" />
        <text x="230" y="125" font-family="Arial, sans-serif" font-size="12" fill="#FF00FF" text-anchor="middle">Evict & Reinsert</text>
        
        <rect x="0" y="130" width="120" height="30" fill="#1A1A1A" stroke="#00FF00" stroke-width="1" />
        <text x="60" y="150" font-family="Arial, sans-serif" font-size="14" fill="#FF00FF" text-anchor="middle">fox → yelp</text>
      </g>
    </g>
  </g>
  
  <!-- Robin Hood Hashing Section -->
  <g transform="translate(450, 100)">
    <text x="0" y="0" font-family="Arial, sans-serif" font-size="24" font-weight="bold" fill="#00FFFF" text-anchor="start">Robin Hood Hashing</text>
    <text x="0" y="30" font-family="Arial, sans-serif" font-size="16" fill="#FFFFFF" text-anchor="start">Steals slots from "rich" elements to give to "poor" ones</text>
    
    <!-- Robin Hood Hash Table Visualization -->
    <g transform="translate(20, 50)">
      <text x="0" y="0" font-family="Arial, sans-serif" font-size="18" fill="#FFFF00" text-anchor="start">Hash Table with Probe Distances</text>
      
      <rect x="0" y="10" width="80" height="30" fill="#1A1A1A" stroke="#00FF00" stroke-width="1" />
      <text x="40" y="30" font-family="Arial, sans-serif" font-size="14" fill="#FFFFFF" text-anchor="middle">[0]</text>
      
      <rect x="80" y="10" width="120" height="30" fill="#1A1A1A" stroke="#00FF00" stroke-width="1" />
      <text x="140" y="30" font-family="Arial, sans-serif" font-size="14" fill="#00FFFF" text-anchor="middle">cat → meow</text>
      
      <rect x="200" y="10" width="40" height="30" fill="#1A1A1A" stroke="#00FF00" stroke-width="1" />
      <text x="220" y="30" font-family="Arial, sans-serif" font-size="14" fill="#FFFF00" text-anchor="middle">0</text>
      
      <rect x="0" y="40" width="80" height="30" fill="#1A1A1A" stroke="#00FF00" stroke-width="1" />
      <text x="40" y="60" font-family="Arial, sans-serif" font-size="14" fill="#FFFFFF" text-anchor="middle">[1]</text>
      
      <rect x="80" y="40" width="120" height="30" fill="#1A1A1A" stroke="#00FF00" stroke-width="1" />
      <text x="140" y="60" font-family="Arial, sans-serif" font-size="14" fill="#00FFFF" text-anchor="middle">dog → woof</text>
      
      <rect x="200" y="40" width="40" height="30" fill="#1A1A1A" stroke="#00FF00" stroke-width="1" />
      <text x="220" y="60" font-family="Arial, sans-serif" font-size="14" fill="#FFFF00" text-anchor="middle">0</text>
      
      <rect x="0" y="70" width="80" height="30" fill="#1A1A1A" stroke="#00FF00" stroke-width="1" />
      <text x="40" y="90" font-family="Arial, sans-serif" font-size="14" fill="#FFFFFF" text-anchor="middle">[2]</text>
      
      <rect x="80" y="70" width="120" height="30" fill="#1A1A1A" stroke="#00FF00" stroke-width="1" />
      <text x="140" y="90" font-family="Arial, sans-serif" font-size="14" fill="#00FFFF" text-anchor="middle">fox → yelp</text>
      
      <rect x="200" y="70" width="40" height="30" fill="#1A1A1A" stroke="#00FF00" stroke-width="1" />
      <text x="220" y="90" font-family="Arial, sans-serif" font-size="14" fill="#FFFF00" text-anchor="middle">1</text>
      
      <rect x="0" y="100" width="80" height="30" fill="#1A1A1A" stroke="#00FF00" stroke-width="1" />
      <text x="40" y="120" font-family="Arial, sans-serif" font-size="14" fill="#FFFFFF" text-anchor="middle">[3]</text>
      
      <rect x="80" y="100" width="120" height="30" fill="#1A1A1A" stroke="#00FF00" stroke-width="1" />
      <text x="140" y="120" font-family="Arial, sans-serif" font-size="14" fill="#00FFFF" text-anchor="middle">bear → growl</text>
      
      <rect x="200" y="100" width="40" height="30" fill="#1A1A1A" stroke="#00FF00" stroke-width="1" />
      <text x="220" y="120" font-family="Arial, sans-serif" font-size="14" fill="#FFFF00" text-anchor="middle">2</text>
      
      <!-- Legend -->
      <g transform="translate(0, 140)">
        <text x="0" y="0" font-family="Arial, sans-serif" font-size="14" fill="#FFFFFF" text-anchor="start">Key:</text>
        <text x="0" y="20" font-family="Arial, sans-serif" font-size="14" fill="#FFFF00" text-anchor="start">Probe Distance = How far element is from its ideal position</text>
      </g>
      
      <!-- Robin Hood Example -->
      <g transform="translate(0, 180)">
        <text x="100" y="0" font-family="Arial, sans-serif" font-size="16" fill="#FFFF00" text-anchor="middle">Inserting "owl" with Robin Hood</text>
        
        <rect x="50" y="20" width="100" height="30" rx="5" fill="#1A1A1A" stroke="#FF00FF" stroke-width="2" />
        <text x="100" y="40" font-family="Arial, sans-serif" font-size="14" fill="#FF00FF" text-anchor="middle">owl → hoot</text>
        
        <text x="100" y="60" font-family="Arial, sans-serif" font-size="12" fill="#FFFFFF" text-anchor="middle">hash(owl) = 2, would have probe distance 1</text>
        
        <path d="M100,70 L100,90" stroke="#FF00FF" stroke-width="2" fill="none" />
        <polygon points="100,90 95,85 105,85" fill="#FF00FF" />
        
        <text x="100" y="110" font-family="Arial, sans-serif" font-size="12" fill="#FF00FF" text-anchor="middle">Robin Hood: owl has higher probe distance</text>
        <text x="100" y="130" font-family="Arial, sans-serif" font-size="12" fill="#FF00FF" text-anchor="middle">than fox, so steal position and move fox</text>
      </g>
    </g>
  </g>
  
  <!-- Bloom Filter Section -->
  <g transform="translate(150, 450)">
    <text x="250" y="0" font-family="Arial, sans-serif" font-size="24" font-weight="bold" fill="#00FFFF" text-anchor="middle">Probabilistic Data Structures</text>
    
    <!-- Bloom Filter -->
    <g transform="translate(0, 30)">
      <text x="0" y="0" font-family="Arial, sans-serif" font-size="18" fill="#FFFF00" text-anchor="start">Bloom Filter</text>
      <text x="0" y="20" font-family="Arial, sans-serif" font-size="12" fill="#FFFFFF" text-anchor="start">Space-efficient set membership testing (allows false positives)</text>
      
      <!-- Bit Array Visual -->
      <g transform="translate(20, 40)">
        <rect x="0" y="0" width="20" height="20" fill="#1A1A1A" stroke="#00FF00" stroke-width="1" />
        <text x="10" y="15" font-family="Arial, sans-serif" font-size="14" fill="#FF00FF" text-anchor="middle">1</text>
        
        <rect x="20" y="0" width="20" height="20" fill="#1A1A1A" stroke="#00FF00" stroke-width="1" />
        <text x="30" y="15" font-family="Arial, sans-serif" font-size="14" fill="#FFFFFF" text-anchor="middle">0</text>
        
        <rect x="40" y="0" width="20" height="20" fill="#1A1A1A" stroke="#00FF00" stroke-width="1" />
        <text x="50" y="15" font-family="Arial, sans-serif" font-size="14" fill="#FF00FF" text-anchor="middle">1</text>
        
        <rect x="60" y="0" width="20" height="20" fill="#1A1A1A" stroke="#00FF00" stroke-width="1" />
        <text x="70" y="15" font-family="Arial, sans-serif" font-size="14" fill="#FF00FF" text-anchor="middle">1</text>
        
        <rect x="80" y="0" width="20" height="20" fill="#1A1A1A" stroke="#00FF00" stroke-width="1" />
        <text x="90" y="15" font-family="Arial, sans-serif" font-size="14" fill="#FFFFFF" text-anchor="middle">0</text>
        
        <rect x="100" y="0" width="20" height="20" fill="#1A1A1A" stroke="#00FF00" stroke-width="1" />
        <text x="110" y="15" font-family="Arial, sans-serif" font-size="14" fill="#FFFFFF" text-anchor="middle">0</text>
        
        <rect x="120" y="0" width="20" height="20" fill="#1A1A1A" stroke="#00FF00" stroke-width="1" />
        <text x="130" y="15" font-family="Arial, sans-serif" font-size="14" fill="#FF00FF" text-anchor="middle">1</text>
        
        <rect x="140" y="0" width="20" height="20" fill="#1A1A1A" stroke="#00FF00" stroke-width="1" />
        <text x="150" y="15" font-family="Arial, sans-serif" font-size="14" fill="#FFFFFF" text-anchor="middle">0</text>
      </g>
    </g>
    
    <!-- Count-Min Sketch -->
    <g transform="translate(250, 30)">
      <text x="0" y="0" font-family="Arial, sans-serif" font-size="18" fill="#FFFF00" text-anchor="start">Count-Min Sketch</text>
      <text x="0" y="20" font-family="Arial, sans-serif" font-size="12" fill="#FFFFFF" text-anchor="start">Estimates element frequencies with bounded error</text>
      
      <!-- Count-Min Sketch Visual -->
      <g transform="translate(20, 40)">
        <rect x="0" y="0" width="160" height="15" fill="#1A1A1A" stroke="#00FF00" stroke-width="1" />
        <text x="80" y="12" font-family="Arial, sans-serif" font-size="10" fill="#FFFFFF" text-anchor="middle">Hash Function 1</text>
        
        <rect x="0" y="15" width="20" height="20" fill="#1A1A1A" stroke="#00FF00" stroke-width="1" />
        <text x="10" y="30" font-family="Arial, sans-serif" font-size="12" fill="#FF00FF" text-anchor="middle">3</text>
        
        <rect x="20" y="15" width="20" height="20" fill="#1A1A1A" stroke="#00FF00" stroke-width="1" />
        <text x="30" y="30" font-family="Arial, sans-serif" font-size="12" fill="#FF00FF" text-anchor="middle">1</text>
        
        <rect x="40" y="15" width="20" height="20" fill="#1A1A1A" stroke="#00FF00" stroke-width="1" />
        <text x="50" y="30" font-family="Arial, sans-serif" font-size="12" fill="#FF00FF" text-anchor="middle">4</text>
        
        <rect x="60" y="15" width="20" height="20" fill="#1A1A1A" stroke="#00FF00" stroke-width="1" />
        <text x="70" y="30" font-family="Arial, sans-serif" font-size="12" fill="#FF00FF" text-anchor="middle">2</text>
        
        <rect x="80" y="15" width="20" height="20" fill="#1A1A1A" stroke="#00FF00" stroke-width="1" />
        <text x="90" y="30" font-family="Arial, sans-serif" font-size="12" fill="#FF00FF" text-anchor="middle">0</text>
        
        <rect x="100" y="15" width="20" height="20" fill="#1A1A1A" stroke="#00FF00" stroke-width="1" />
        <text x="110" y="30" font-family="Arial, sans-serif" font-size="12" fill="#FF00FF" text-anchor="middle">5</text>
        
        <rect x="120" y="15" width="20" height="20" fill="#1A1A1A" stroke="#00FF00" stroke-width="1" />
        <text x="130" y="30" font-family="Arial, sans-serif" font-size="12" fill="#FF00FF" text-anchor="middle">1</text>
        
        <rect x="140" y="15" width="20" height="20" fill="#1A1A1A" stroke="#00FF00" stroke-width="1" />
        <text x="150" y="30" font-family="Arial, sans-serif" font-size="12" fill="#FF00FF" text-anchor="middle">0</text>
        
        <rect x="0" y="35" width="160" height="15" fill="#1A1A1A" stroke="#00FF00" stroke-width="1" />
        <text x="80" y="47" font-family="Arial, sans-serif" font-size="10" fill="#FFFFFF" text-anchor="middle">Hash Function 2</text>
        
        <rect x="0" y="50" width="20" height="20" fill="#1A1A1A" stroke="#00FF00" stroke-width="1" />
        <text x="10" y="65" font-family="Arial, sans-serif" font-size="12" fill="#FF00FF" text-anchor="middle">1</text>
        
        <rect x="20" y="50" width="20" height="20" fill="#1A1A1A" stroke="#00FF00" stroke-width="1" />
        <text x="30" y="65" font-family="Arial, sans-serif" font-size="12" fill="#FF00FF" text-anchor="middle">0</text>
        
        <rect x="40" y="50" width="20" height="20" fill="#1A1A1A" stroke="#00FF00" stroke-width="1" />
        <text x="50" y="65" font-family="Arial, sans-serif" font-size="12" fill="#FF00FF" text-anchor="middle">3</text>
        
        <rect x="60" y="50" width="20" height="20" fill="#1A1A1A" stroke="#00FF00" stroke-width="1" />
        <text x="70" y="65" font-family="Arial, sans-serif" font-size="12" fill="#FF00FF" text-anchor="middle">1</text>
        
        <rect x="80" y="50" width="20" height="20" fill="#1A1A1A" stroke="#00FF00" stroke-width="1" />
        <text x="90" y="65" font-family="Arial, sans-serif" font-size="12" fill="#FF00FF" text-anchor="middle">2</text>
        
        <rect x="100" y="50" width="20" height="20" fill="#1A1A1A" stroke="#00FF00" stroke-width="1" />
        <text x="110" y="65" font-family="Arial, sans-serif" font-size="12" fill="#FF00FF" text-anchor="middle">3</text>
        
        <rect x="120" y="50" width="20" height="20" fill="#1A1A1A" stroke="#00FF00" stroke-width="1" />
        <text x="130" y="65" font-family="Arial, sans-serif" font-size="12" fill="#FF00FF" text-anchor="middle">0</text>
        
        <rect x="140" y="50" width="20" height="20" fill="#1A1A1A" stroke="#00FF00" stroke-width="1" />
        <text x="150" y="65" font-family="Arial, sans-serif" font-size="12" fill="#FF00FF" text-anchor="middle">2</text>
      </g>
    </g>
  </g>
  
  <!-- Footer -->
  <text x="400" y="580" font-family="Arial, sans-serif" font-size="18" fill="#FFFF00" text-anchor="middle">Techniques for O(1) worst-case performance and space efficiency</text>
</svg>