<svg viewBox="0 0 800 400" xmlns="http://www.w3.org/2000/svg">
  <defs>
    <linearGradient id="headerGradient" x1="0%" y1="0%" x2="100%" y2="0%">
      <stop offset="0%" stop-color="#00FFFF" />
      <stop offset="100%" stop-color="#FF00FF" />
    </linearGradient>
    <filter id="glow">
      <feGaussianBlur stdDeviation="5" result="blur" />
      <feComposite in="SourceGraphic" in2="blur" operator="over" />
    </filter>
  </defs>
  
  <!-- Background -->
  <rect width="800" height="400" fill="#121212" />
  
  <!-- Grid Pattern -->
  <g opacity="0.1" stroke="#004444" stroke-width="1">
    <g id="grid">
      <line x1="0" y1="0" x2="800" y2="0" />
      <line x1="0" y1="50" x2="800" y2="50" />
      <line x1="0" y1="100" x2="800" y2="100" />
      <line x1="0" y1="150" x2="800" y2="150" />
      <line x1="0" y1="200" x2="800" y2="200" />
      <line x1="0" y1="250" x2="800" y2="250" />
      <line x1="0" y1="300" x2="800" y2="300" />
      <line x1="0" y1="350" x2="800" y2="350" />
      <line x1="0" y1="400" x2="800" y2="400" />
      
      <line x1="0" y1="0" x2="0" y2="400" />
      <line x1="100" y1="0" x2="100" y2="400" />
      <line x1="200" y1="0" x2="200" y2="400" />
      <line x1="300" y1="0" x2="300" y2="400" />
      <line x1="400" y1="0" x2="400" y2="400" />
      <line x1="500" y1="0" x2="500" y2="400" />
      <line x1="600" y1="0" x2="600" y2="400" />
      <line x1="700" y1="0" x2="700" y2="400" />
      <line x1="800" y1="0" x2="800" y2="400" />
    </g>
  </g>
  
  <!-- Title -->
  <text x="400" y="50" font-family="Arial, sans-serif" font-size="32" font-weight="bold" fill="url(#headerGradient)" text-anchor="middle" filter="url(#glow)">Double-Ended Queue (Deque)</text>
  
  <!-- Main Deque Visualization -->
  <g transform="translate(150, 150)">
    <!-- Deque Boxes -->
    <rect x="0" y="0" width="100" height="100" fill="#1A1A1A" stroke="#00FF00" stroke-width="2" />
    <rect x="100" y="0" width="100" height="100" fill="#1A1A1A" stroke="#00FF00" stroke-width="2" />
    <rect x="200" y="0" width="100" height="100" fill="#1A1A1A" stroke="#00FF00" stroke-width="2" />
    <rect x="300" y="0" width="100" height="100" fill="#1A1A1A" stroke="#00FF00" stroke-width="2" />
    <rect x="400" y="0" width="100" height="100" fill="#1A1A1A" stroke="#00FF00" stroke-width="2" />
    
    <!-- Box Values -->
    <text x="50" y="60" font-family="Arial, sans-serif" font-size="28" fill="#00FFFF" text-anchor="middle">A</text>
    <text x="150" y="60" font-family="Arial, sans-serif" font-size="28" fill="#00FFFF" text-anchor="middle">B</text>
    <text x="250" y="60" font-family="Arial, sans-serif" font-size="28" fill="#00FFFF" text-anchor="middle">C</text>
    <text x="350" y="60" font-family="Arial, sans-serif" font-size="28" fill="#00FFFF" text-anchor="middle">D</text>
    <text x="450" y="60" font-family="Arial, sans-serif" font-size="28" fill="#00FFFF" text-anchor="middle">E</text>
    
    <!-- Position Labels -->
    <text x="50" y="-15" font-family="Arial, sans-serif" font-size="16" fill="#FFFF00" text-anchor="middle">Front</text>
    <text x="450" y="-15" font-family="Arial, sans-serif" font-size="16" fill="#FFFF00" text-anchor="middle">Back</text>
    
    <!-- Operation Arrows -->
    <!-- push_front -->
    <path d="M-70,50 L-20,50" stroke="#FF00FF" stroke-width="3" fill="none" marker-end="url(#arrowhead)" />
    <polygon points="-20,50 -30,45 -30,55" fill="#FF00FF" />
    <rect x="-140" y="30" width="70" height="40" rx="10" fill="#1A1A1A" stroke="#FF00FF" stroke-width="2" />
    <text x="-105" y="55" font-family="Arial, sans-serif" font-size="20" fill="#FF00FF" text-anchor="middle">X</text>
    <text x="-105" y="85" font-family="Arial, sans-serif" font-size="14" fill="#FF00FF" text-anchor="middle">push_front(X)</text>
    
    <!-- push_back -->
    <path d="M570,50 L520,50" stroke="#00FFFF" stroke-width="3" fill="none" />
    <polygon points="520,50 530,45 530,55" fill="#00FFFF" />
    <rect x="570" y="30" width="70" height="40" rx="10" fill="#1A1A1A" stroke="#00FFFF" stroke-width="2" />
    <text x="605" y="55" font-family="Arial, sans-serif" font-size="20" fill="#00FFFF" text-anchor="middle">Y</text>
    <text x="605" y="85" font-family="Arial, sans-serif" font-size="14" fill="#00FFFF" text-anchor="middle">push_back(Y)</text>
    
    <!-- pop_front -->
    <path d="M50,130 L50,170" stroke="#FF8800" stroke-width="3" fill="none" />
    <polygon points="50,170 45,160 55,160" fill="#FF8800" />
    <text x="50" y="190" font-family="Arial, sans-serif" font-size="14" fill="#FF8800" text-anchor="middle">pop_front()</text>
    
    <!-- pop_back -->
    <path d="M450,130 L450,170" stroke="#FF8800" stroke-width="3" fill="none" />
    <polygon points="450,170 445,160 455,160" fill="#FF8800" />
    <text x="450" y="190" font-family="Arial, sans-serif" font-size="14" fill="#FF8800" text-anchor="middle">pop_back()</text>
  </g>
  
  <!-- Legend -->
  <g transform="translate(250, 320)">
    <text x="0" y="0" font-family="Arial, sans-serif" font-size="18" fill="#FFFFFF" text-anchor="middle">Operations:</text>
    <rect x="-125" y="10" width="20" height="20" fill="#1A1A1A" stroke="#FF00FF" stroke-width="2" />
    <text x="-100" y="25" font-family="Arial, sans-serif" font-size="14" fill="#FF00FF" text-anchor="start">push_front() - O(1)</text>
    
    <rect x="-125" y="40" width="20" height="20" fill="#1A1A1A" stroke="#00FFFF" stroke-width="2" />
    <text x="-100" y="55" font-family="Arial, sans-serif" font-size="14" fill="#00FFFF" text-anchor="start">push_back() - O(1)</text>
    
    <rect x="95" y="10" width="20" height="20" fill="#1A1A1A" stroke="#FF8800" stroke-width="2" />
    <text x="120" y="25" font-family="Arial, sans-serif" font-size="14" fill="#FF8800" text-anchor="start">pop_front() - O(1)</text>
    
    <rect x="95" y="40" width="20" height="20" fill="#1A1A1A" stroke="#FF8800" stroke-width="2" />
    <text x="120" y="55" font-family="Arial, sans-serif" font-size="14" fill="#FF8800" text-anchor="start">pop_back() - O(1)</text>
  </g>
</svg>