<svg viewBox="0 0 800 500" xmlns="http://www.w3.org/2000/svg">
  <defs>
    <linearGradient id="headerGradient" x1="0%" y1="0%" x2="100%" y2="0%">
      <stop offset="0%" stop-color="#00FFFF" />
      <stop offset="100%" stop-color="#FF00FF" />
    </linearGradient>
    <filter id="glow">
      <feGaussianBlur stdDeviation="5" result="blur" />
      <feComposite in="SourceGraphic" in2="blur" operator="over" />
    </filter>
    <marker id="arrowhead" markerWidth="10" markerHeight="7" refX="0" refY="3.5" orient="auto">
      <polygon points="0 0, 10 3.5, 0 7" fill="#00FF00" />
    </marker>
  </defs>
  
  <!-- Background -->
  <rect width="800" height="500" fill="#121212" />
  
  <!-- Grid Pattern -->
  <g opacity="0.1" stroke="#004444" stroke-width="1">
    <g id="grid">
      <line x1="0" y1="0" x2="800" y2="0" />
      <line x1="0" y1="50" x2="800" y2="50" />
      <line x1="0" y1="100" x2="800" y2="100" />
      <line x1="0" y1="150" x2="800" y2="150" />
      <line x1="0" y1="200" x2="800" y2="200" />
      <line x1="0" y1="250" x2="800" y2="250" />
      <line x1="0" y1="300" x2="800" y2="300" />
      <line x1="0" y1="350" x2="800" y2="350" />
      <line x1="0" y1="400" x2="800" y2="400" />
      <line x1="0" y1="450" x2="800" y2="450" />
      <line x1="0" y1="500" x2="800" y2="500" />
      
      <line x1="0" y1="0" x2="0" y2="500" />
      <line x1="100" y1="0" x2="100" y2="500" />
      <line x1="200" y1="0" x2="200" y2="500" />
      <line x1="300" y1="0" x2="300" y2="500" />
      <line x1="400" y1="0" x2="400" y2="500" />
      <line x1="500" y1="0" x2="500" y2="500" />
      <line x1="600" y1="0" x2="600" y2="500" />
      <line x1="700" y1="0" x2="700" y2="500" />
      <line x1="800" y1="0" x2="800" y2="500" />
    </g>
  </g>
  
  <!-- Title -->
  <text x="400" y="50" font-family="Arial, sans-serif" font-size="32" font-weight="bold" fill="url(#headerGradient)" text-anchor="middle" filter="url(#glow)">Priority Queue (Max Heap)</text>
  
  <!-- Binary Heap Visualization -->
  <!-- Level 1 -->
  <circle cx="400" cy="120" r="40" fill="#1A1A1A" stroke="#00FF00" stroke-width="2" />
  <text x="400" y="130" font-family="Arial, sans-serif" font-size="24" fill="#FF00FF" text-anchor="middle">100</text>
  
  <!-- Level 2 -->
  <circle cx="250" cy="220" r="40" fill="#1A1A1A" stroke="#00FF00" stroke-width="2" />
  <text x="250" y="230" font-family="Arial, sans-serif" font-size="24" fill="#00FFFF" text-anchor="middle">80</text>
  
  <circle cx="550" cy="220" r="40" fill="#1A1A1A" stroke="#00FF00" stroke-width="2" />
  <text x="550" y="230" font-family="Arial, sans-serif" font-size="24" fill="#00FFFF" text-anchor="middle">70</text>
  
  <!-- Level 3 -->
  <circle cx="175" cy="320" r="40" fill="#1A1A1A" stroke="#00FF00" stroke-width="2" />
  <text x="175" y="330" font-family="Arial, sans-serif" font-size="24" fill="#FFFF00" text-anchor="middle">50</text>
  
  <circle cx="325" cy="320" r="40" fill="#1A1A1A" stroke="#00FF00" stroke-width="2" />
  <text x="325" y="330" font-family="Arial, sans-serif" font-size="24" fill="#FFFF00" text-anchor="middle">60</text>
  
  <circle cx="475" cy="320" r="40" fill="#1A1A1A" stroke="#00FF00" stroke-width="2" />
  <text x="475" y="330" font-family="Arial, sans-serif" font-size="24" fill="#FFFF00" text-anchor="middle">40</text>
  
  <circle cx="625" cy="320" r="40" fill="#1A1A1A" stroke="#00FF00" stroke-width="2" />
  <text x="625" y="330" font-family="Arial, sans-serif" font-size="24" fill="#FFFF00" text-anchor="middle">30</text>
  
  <!-- Connecting lines -->
  <line x1="370" y1="140" x2="280" y2="200" stroke="#00FF00" stroke-width="2" />
  <line x1="430" y1="140" x2="520" y2="200" stroke="#00FF00" stroke-width="2" />
  
  <line x1="220" y1="240" x2="195" y2="300" stroke="#00FF00" stroke-width="2" />
  <line x1="280" y1="240" x2="305" y2="300" stroke="#00FF00" stroke-width="2" />
  
  <line x1="520" y1="240" x2="495" y2="300" stroke="#00FF00" stroke-width="2" />
  <line x1="580" y1="240" x2="605" y2="300" stroke="#00FF00" stroke-width="2" />
  
  <!-- Priority Queue Operations -->
  <g transform="translate(400, 420)">
    <!-- Push operation -->
    <rect x="-300" y="-20" width="200" height="60" rx="10" fill="#1A1A1A" stroke="#00FFFF" stroke-width="2" />
    <text x="-200" y="0" font-family="Arial, sans-serif" font-size="18" fill="#00FFFF" text-anchor="middle">push(90)</text>
    <text x="-200" y="25" font-family="Arial, sans-serif" font-size="14" fill="#FFFFFF" text-anchor="middle">Add to end, heapify up</text>
    <text x="-200" y="45" font-family="Arial, sans-serif" font-size="14" fill="#FFFF00" text-anchor="middle">O(log n)</text>
    
    <!-- Pop operation -->
    <rect x="100" y="-20" width="200" height="60" rx="10" fill="#1A1A1A" stroke="#FF8800" stroke-width="2" />
    <text x="200" y="0" font-family="Arial, sans-serif" font-size="18" fill="#FF8800" text-anchor="middle">pop()</text>
    <text x="200" y="25" font-family="Arial, sans-serif" font-size="14" fill="#FFFFFF" text-anchor="middle">Remove root, replace with last</text>
    <text x="200" y="45" font-family="Arial, sans-serif" font-size="14" fill="#FFFF00" text-anchor="middle">O(log n)</text>
    
    <!-- Top operation -->
    <rect x="-100" y="50" width="200" height="40" rx="10" fill="#1A1A1A" stroke="#FF00FF" stroke-width="2" />
    <text x="0" y="75" font-family="Arial, sans-serif" font-size="18" fill="#FF00FF" text-anchor="middle">top() → 100</text>
    <text x="0" y="95" font-family="Arial, sans-serif" font-size="14" fill="#FFFF00" text-anchor="middle">O(1)</text>
  </g>
  
  <!-- Array Representation -->
  <g transform="translate(130, 60)">
    <text x="0" y="0" font-family="Arial, sans-serif" font-size="16" fill="#FFFFFF" text-anchor="start">Array Representation:</text>
    
    <rect x="0" y="10" width="50" height="30" fill="#1A1A1A" stroke="#00FF00" stroke-width="2" />
    <text x="25" y="30" font-family="Arial, sans-serif" font-size="14" fill="#FF00FF" text-anchor="middle">100</text>
    <text x="25" y="50" font-family="Arial, sans-serif" font-size="12" fill="#FFFFFF" text-anchor="middle">[0]</text>
    
    <rect x="50" y="10" width="50" height="30" fill="#1A1A1A" stroke="#00FF00" stroke-width="2" />
    <text x="75" y="30" font-family="Arial, sans-serif" font-size="14" fill="#00FFFF" text-anchor="middle">80</text>
    <text x="75" y="50" font-family="Arial, sans-serif" font-size="12" fill="#FFFFFF" text-anchor="middle">[1]</text>
    
    <rect x="100" y="10" width="50" height="30" fill="#1A1A1A" stroke="#00FF00" stroke-width="2" />
    <text x="125" y="30" font-family="Arial, sans-serif" font-size="14" fill="#00FFFF" text-anchor="middle">70</text>
    <text x="125" y="50" font-family="Arial, sans-serif" font-size="12" fill="#FFFFFF" text-anchor="middle">[2]</text>
    
    <rect x="150" y="10" width="50" height="30" fill="#1A1A1A" stroke="#00FF00" stroke-width="2" />
    <text x="175" y="30" font-family="Arial, sans-serif" font-size="14" fill="#FFFF00" text-anchor="middle">50</text>
    <text x="175" y="50" font-family="Arial, sans-serif" font-size="12" fill="#FFFFFF" text-anchor="middle">[3]</text>
    
    <rect x="200" y="10" width="50" height="30" fill="#1A1A1A" stroke="#00FF00" stroke-width="2" />
    <text x="225" y="30" font-family="Arial, sans-serif" font-size="14" fill="#FFFF00" text-anchor="middle">60</text>
    <text x="225" y="50" font-family="Arial, sans-serif" font-size="12" fill="#FFFFFF" text-anchor="middle">[4]</text>
    
    <rect x="250" y="10" width="50" height="30" fill="#1A1A1A" stroke="#00FF00" stroke-width="2" />
    <text x="275" y="30" font-family="Arial, sans-serif" font-size="14" fill="#FFFF00" text-anchor="middle">40</text>
    <text x="275" y="50" font-family="Arial, sans-serif" font-size="12" fill="#FFFFFF" text-anchor="middle">[5]</text>
    
    <rect x="300" y="10" width="50" height="30" fill="#1A1A1A" stroke="#00FF00" stroke-width="2" />
    <text x="325" y="30" font-family="Arial, sans-serif" font-size="14" fill="#FFFF00" text-anchor="middle">30</text>
    <text x="325" y="50" font-family="Arial, sans-serif" font-size="12" fill="#FFFFFF" text-anchor="middle">[6]</text>
  </g>
  
  <!-- Properties -->
  <g transform="translate(600, 60)">
    <text x="0" y="0" font-family="Arial, sans-serif" font-size="16" fill="#FFFFFF" text-anchor="start">Heap Properties:</text>
    <text x="0" y="25" font-family="Arial, sans-serif" font-size="14" fill="#FFFF00" text-anchor="start">• Parent(i) = (i-1)/2</text>
    <text x="0" y="45" font-family="Arial, sans-serif" font-size="14" fill="#FFFF00" text-anchor="start">• LeftChild(i) = 2i+1</text>
    <text x="0" y="65" font-family="Arial, sans-serif" font-size="14" fill="#FFFF00" text-anchor="start">• RightChild(i) = 2i+2</text>
    <text x="0" y="85" font-family="Arial, sans-serif" font-size="14" fill="#00FFFF" text-anchor="start">• Parent value ≥ Children values</text>
  </g>
</svg>